<svg width="25" height="24" viewBox="0 0 25 24" fill="none" xmlns="http://www.w3.org/2000/svg">
<path fill-rule="evenodd" clip-rule="evenodd" d="M21.5 12C21.5 12.5523 21.0523 13 20.5 13H4.5C3.94772 13 3.5 12.5523 3.5 12C3.5 11.4477 3.94772 11 4.5 11H20.5C21.0523 11 21.5 11.4477 21.5 12Z" fill="white"/>
<path d="M19.4722 12C19.3789 11.8452 19.1833 11.5671 18.9695 11.3251C18.5437 10.8432 17.957 10.2928 17.3445 9.76105C16.737 9.23357 16.1265 8.74365 15.6661 8.38437C15.4365 8.20515 15.0402 7.90576 14.907 7.80521C14.4624 7.47768 14.3674 6.85173 14.6949 6.40706C15.0224 5.96236 15.6484 5.86736 16.0931 6.19487L16.0968 6.19767C16.2412 6.30672 16.6598 6.62291 16.8966 6.80767C17.3737 7.18002 18.0132 7.69303 18.6557 8.25084C19.2932 8.80434 19.9565 9.4216 20.4682 10.0008C20.7231 10.2892 20.9615 10.5918 21.1417 10.8906C21.3053 11.162 21.5001 11.5568 21.5001 12C21.5001 12.4431 21.3053 12.838 21.1417 13.1094C20.9615 13.4082 20.7231 13.7108 20.4682 13.9992C19.9565 14.5784 19.2932 15.1957 18.6557 15.7492C18.0132 16.307 17.3737 16.82 16.8966 17.1923C16.6598 17.3771 16.2415 17.6931 16.0971 17.8021L16.0931 17.8051C15.6484 18.1326 15.0224 18.0376 14.6949 17.5929C14.3674 17.1483 14.4624 16.5223 14.907 16.1948C15.0402 16.0942 15.4365 15.7948 15.6661 15.6156C16.1265 15.2564 16.737 14.7664 17.3445 14.2389C17.957 13.7072 18.5437 13.1568 18.9695 12.6749C19.1833 12.4329 19.3789 12.1548 19.4722 12Z" fill="white"/>
</svg>
