<svg width="8" height="12" viewBox="0 0 8 12" fill="none" xmlns="http://www.w3.org/2000/svg">
<path d="M5.13867 6C5.04537 5.8452 4.84977 5.5671 4.63597 5.3251C4.21017 4.8432 3.62347 4.2928 3.01097 3.76105C2.40347 3.23357 1.79297 2.74365 1.33257 2.38437C1.10297 2.20515 0.706672 1.90576 0.573472 1.80521C0.128872 1.47768 0.0338721 0.85173 0.361372 0.40706C0.688872 -0.0376403 1.31487 -0.13264 1.75957 0.19487L1.76327 0.19767C1.90767 0.30672 2.32627 0.62291 2.56307 0.80767C3.04017 1.18002 3.67967 1.69303 4.32217 2.25084C4.95967 2.80434 5.62297 3.4216 6.13467 4.0008C6.38957 4.2892 6.62797 4.5918 6.80817 4.8906C6.97177 5.162 7.16657 5.5568 7.16657 6C7.16657 6.4431 6.97177 6.838 6.80817 7.1094C6.62797 7.4082 6.38957 7.7108 6.13467 7.9992C5.62297 8.5784 4.95967 9.1957 4.32217 9.7492C3.67967 10.307 3.04017 10.82 2.56307 11.1923C2.32627 11.3771 1.90797 11.6931 1.76357 11.8021L1.75957 11.8051C1.31487 12.1326 0.688872 12.0376 0.361372 11.5929C0.0338721 11.1483 0.128872 10.5223 0.573472 10.1948C0.706672 10.0942 1.10297 9.7948 1.33257 9.6156C1.79297 9.2564 2.40347 8.7664 3.01097 8.2389C3.62347 7.7072 4.21017 7.1568 4.63597 6.6749C4.84977 6.4329 5.04537 6.1548 5.13867 6Z" fill="white"/>
</svg>
