<svg width="25" height="24" viewBox="0 0 25 24" fill="none" xmlns="http://www.w3.org/2000/svg">
<path fill-rule="evenodd" clip-rule="evenodd" d="M12.5 21C13.0523 21 13.5 20.5523 13.5 20V4C13.5 3.44772 13.0523 3 12.5 3C11.9477 3 11.5 3.44772 11.5 4V20C11.5 20.5523 11.9477 21 12.5 21Z" fill="white"/>
<path d="M12.5 18.9722C12.3452 18.8789 12.0671 18.6833 11.8251 18.4695C11.3432 18.0437 10.7928 17.457 10.261 16.8445C9.73357 16.237 9.24365 15.6265 8.88437 15.1661C8.70515 14.9365 8.40576 14.5402 8.30521 14.407C7.97768 13.9624 7.35173 13.8674 6.90706 14.1949C6.46236 14.5224 6.36736 15.1484 6.69487 15.5931L6.69767 15.5968C6.80672 15.7412 7.12291 16.1598 7.30767 16.3966C7.68002 16.8737 8.19303 17.5132 8.75084 18.1557C9.30434 18.7932 9.9216 19.4565 10.5008 19.9682C10.7892 20.2231 11.0918 20.4615 11.3906 20.6417C11.662 20.8053 12.0568 21.0001 12.5 21.0001C12.9431 21.0001 13.338 20.8053 13.6094 20.6417C13.9082 20.4615 14.2108 20.2231 14.4992 19.9682C15.0784 19.4565 15.6957 18.7932 16.2492 18.1557C16.807 17.5132 17.32 16.8737 17.6923 16.3966C17.8771 16.1598 18.1931 15.7415 18.3021 15.5971L18.3051 15.5931C18.6326 15.1484 18.5376 14.5224 18.0929 14.1949C17.6483 13.8674 17.0223 13.9624 16.6948 14.407C16.5942 14.5402 16.2948 14.9365 16.1156 15.1661C15.7564 15.6265 15.2664 16.237 14.7389 16.8445C14.2072 17.457 13.6568 18.0437 13.1749 18.4695C12.9329 18.6833 12.6548 18.8789 12.5 18.9722Z" fill="white"/>
</svg>
