<svg width="22" height="23" viewBox="0 0 22 23" fill="none" xmlns="http://www.w3.org/2000/svg">
<path d="M10.9961 0.533691C12.0454 0.533691 12.8719 1.32622 13.3995 2.3956L15.1616 5.94885C15.215 6.05882 15.3417 6.21367 15.5321 6.35533C15.7223 6.49684 15.9086 6.5749 16.0311 6.59549L19.2207 7.12982C20.3729 7.32342 21.3386 7.88818 21.6521 8.87159C21.9653 9.85419 21.5064 10.8753 20.6778 11.7053L20.677 11.7062L18.1991 14.2046C18.1009 14.3036 17.9909 14.4901 17.9219 14.7331C17.8534 14.9745 17.8473 15.1944 17.8784 15.3364L17.8788 15.3384L18.5877 18.4291C18.8818 19.7154 18.7843 20.991 17.8771 21.6579C16.9667 22.327 15.7227 22.0304 14.5925 21.3573L11.6026 19.5727C11.477 19.4977 11.2614 19.4369 11.0011 19.4369C10.7427 19.4369 10.5226 19.4969 10.3888 19.5747L10.3869 19.5758L7.40288 21.3569C6.27405 22.0324 5.03154 22.3237 4.12111 21.6539C3.21449 20.9869 3.11214 19.7137 3.40711 18.4284L4.1159 15.3384L4.11633 15.3364C4.14741 15.1944 4.14133 14.9745 4.0728 14.7331C4.0038 14.4901 3.89379 14.3036 3.79558 14.2046L1.31585 11.7043C0.492647 10.8743 0.0352073 9.85409 0.345947 8.87294C0.657587 7.88894 1.62143 7.32349 2.77433 7.12975L5.96132 6.59588L5.96233 6.59571C6.07917 6.57544 6.2627 6.49825 6.45248 6.35637C6.64261 6.21423 6.76959 6.05904 6.82312 5.94885L6.82582 5.94336L8.58562 2.39466L8.58632 2.39326C9.119 1.32477 9.948 0.533691 10.9961 0.533691Z" fill="white"/>
</svg>
